<?xml version="1.0" standalone="no"?>
<!DOCTYPE svg PUBLIC "-//W3C//DTD SVG 20010904//EN"
 "http://www.w3.org/TR/2001/REC-SVG-20010904/DTD/svg10.dtd">
<svg version="1.0" xmlns="http://www.w3.org/2000/svg"
 width="217.000000pt" height="232.000000pt" viewBox="0 0 217.000000 232.000000"
 preserveAspectRatio="xMidYMid meet">

<g transform="translate(0.000000,232.000000) scale(0.100000,-0.100000)"
fill="#000000" stroke="none">
<path d="M617 1618 c-21 -6 -56 -27 -77 -47 -65 -62 -75 -154 -24 -233 40 -62
58 -69 175 -66 l104 3 -72 43 c-98 59 -143 110 -143 161 0 74 63 117 148 101
23 -4 53 -15 67 -24 33 -21 81 -88 95 -132 7 -19 18 -34 27 -34 9 0 13 6 10
13 -3 8 -8 60 -12 116 -4 56 -12 104 -17 107 -5 3 -17 -5 -27 -17 -19 -23 -19
-23 -73 -6 -73 23 -135 28 -181 15z"/>
<path d="M940 1620 c0 -5 9 -10 20 -10 10 0 35 -14 55 -31 l35 -31 0 -139 0
-139 258 0 c141 0 267 3 280 6 21 6 22 10 22 149 0 160 4 170 74 182 76 12 30
23 -99 23 -129 0 -175 -11 -99 -23 70 -12 74 -22 74 -184 l0 -143 -82 0 -83 1
-134 174 -133 175 -94 0 c-56 0 -94 -4 -94 -10z m235 -237 l75 -98 -67 -3
c-36 -2 -72 -1 -80 2 -10 4 -13 30 -13 101 0 52 2 95 5 95 2 0 38 -44 80 -97z"/>
<path d="M646 1191 c68 -5 87 -10 118 -34 49 -38 68 -69 73 -120 5 -51 -11
-84 -56 -114 -92 -62 -246 14 -293 144 -14 38 -43 47 -35 11 3 -13 11 -67 18
-120 8 -64 17 -98 25 -98 6 0 14 7 18 15 7 19 47 19 110 0 95 -29 187 -15 251
37 75 62 97 164 52 243 l-23 40 -169 1 c-113 1 -143 -1 -89 -5z"/>
<path d="M1050 1061 c0 -139 0 -140 -26 -160 -15 -12 -40 -21 -55 -21 -16 0
-29 -4 -29 -10 0 -6 50 -10 130 -10 133 0 163 9 88 26 -61 13 -69 34 -66 179
l3 120 30 6 c24 5 19 7 -22 8 l-53 1 0 -139z"/>
<path d="M1247 1191 l81 -6 131 -170 c73 -93 136 -171 141 -173 6 -2 10 63 10
171 0 173 0 175 -22 181 -13 3 -113 5 -223 4 -134 -1 -173 -4 -118 -7z m313
-62 l0 -62 -18 24 c-10 13 -31 41 -46 62 l-28 37 46 0 46 0 0 -61z"/>
<path d="M0 75 l0 -75 1085 0 1085 0 0 75 0 75 -1085 0 -1085 0 0 -75z m183
30 c43 0 47 -2 48 -25 1 -23 2 -23 9 5 7 28 8 27 9 -12 1 -35 -2 -43 -16 -43
-15 0 -16 2 -3 10 13 8 12 10 -2 10 -12 0 -19 8 -19 23 -2 20 -2 20 -7 -3 l-5
-25 -8 25 c-7 24 -7 24 -8 3 -1 -21 -6 -23 -51 -23 -51 0 -60 6 -38 28 9 9 9
12 -1 12 -7 0 -9 5 -6 11 4 6 13 8 21 5 8 -3 14 0 14 7 0 8 3 8 8 2 4 -6 28
-10 55 -10z m1735 -52 c-10 -2 -28 -2 -40 0 -13 2 -5 4 17 4 22 1 32 -1 23 -4z
m102 -1 c0 -4 -18 -6 -40 -4 -22 2 -40 6 -40 8 0 2 18 4 40 4 22 0 40 -3 40
-8z m58 1 c-10 -2 -26 -2 -35 0 -10 3 -2 5 17 5 19 0 27 -2 18 -5z"/>
<path d="M130 79 c0 -5 5 -7 10 -4 6 3 10 8 10 11 0 2 -4 4 -10 4 -5 0 -10 -5
-10 -11z"/>
</g>
</svg>
